<svg width="420" height="560" viewBox="0 0 420 560" fill="none" xmlns="http://www.w3.org/2000/svg">
<g clip-path="url(#clip0_248_1397)">
<path d="M70 280H140V210H87L77 224.5L80.5 248.5L70 260V280Z" fill="black"/>
<path d="M86 210H140V140H87L77 154.5L80.5 178.5L77 194.5L86 210Z" fill="black"/>
<path d="M264 210H210V140H263L273 154.5L269.5 178.5L273 194.5L264 210Z" fill="black"/>
<path d="M280 280H210V210H263L273 224.5L269.5 248.5L280 260V280Z" fill="black"/>
<path d="M82 65.7377L73.5 60.3333L70 63.1667L70 70L140 70L140 65.5L127 62.7869L118 65.7377L106 60L82 65.7377Z" fill="black"/>
<path d="M70 70H140V140H87L77 125.5L80.5 101.5L70 90V70Z" fill="black"/>
<path d="M268 65.7377L276.5 60.3333L280 63.1667L280 70L210 70L210 65.5L223 62.7869L232 65.7377L244 60L268 65.7377Z" fill="black"/>
<path d="M280 70H210V140H263L273 125.5L269.5 101.5L280 90V70Z" fill="black"/>
<rect x="140" y="140" width="70" height="70" fill="black"/>
<rect x="140" y="210" width="70" height="70" fill="black"/>
<rect x="140" y="70" width="70" height="70" fill="black"/>
<path d="M198 65.7377L203 61.8033L210 65.5L210 70L140 70L140 65.5L153 62.7869L162 65.7377L174 60L198 65.7377Z" fill="black"/>
<path d="M70 280L0 280L3.49691e-06 260L7.00001 247.5L2.50001 228L10 210L60 210L66.5 224.5L65 243L70 260L70 280Z" fill="black"/>
<path d="M9.5 140H59.5L70 157L65.5 172.5L70 197.5L60 210H10L0 197.5L5 177L0 158L9.5 140Z" fill="black"/>
<path d="M0 70H70V90L63 102.5L67.5 122L59.5 140H9.5L3.5 125.5L5 107L0 90V70Z" fill="black"/>
<path d="M12 65.5907L3.5 60L-6.17988e-07 62.931L0 70L70 70L70 61.7241L63.5 66.3793L57 62.5382L48 65.5907L21 62.931L12 65.5907Z" fill="black"/>
<rect x="280" y="70" width="70" height="70" fill="black"/>
<path d="M330 122L334.525 116L338.79 123.525L336.5 127L331.265 127.79L330 122Z" fill="#131313"/>
<path d="M296.411 81.0001L303.5 82.5001L307.515 87.411L305.5 95.5L299 101L288.5 91.5L296.411 81.0001Z" fill="#131313"/>
<rect x="350" y="70" width="70" height="70" fill="black"/>
<path d="M400.4 99.7452L407.489 101.245L411.504 106.156L409.489 114.245L402.989 119.745L392.489 110.245L400.4 99.7452Z" fill="#131313"/>
<path d="M372 86.0005L376.525 80.0002L380.79 87.5254L378.5 91.0005L373.265 91.7904L372 86.0005Z" fill="#131313"/>
<rect x="280" y="140" width="70" height="70" fill="black"/>
<path d="M294.538 160.883L298.475 159.345L303.619 162.315L304.255 166.493L306.541 167.813L309.246 167.088L310.236 165.374L309.874 164.021L311.226 163.659L312.216 161.944L311.491 159.24L309.205 157.92L305.434 159.172L300.29 156.202L299.488 152.31L297.202 150.99L294.497 151.714L293.507 153.429L293.87 154.781L292.517 155.144L291.527 156.859L292.252 159.563L294.538 160.883Z" fill="#131313"/>
<path d="M296.411 182.688L300 190L293.5 197L290 193.792L290 185L296.411 182.688Z" fill="#131313"/>
<path d="M332.4 161.745L339.489 163.245L343.504 168.156L341.489 176.245L334.989 181.745L324.489 172.245L332.4 161.745Z" fill="#131313"/>
<rect x="350" y="140" width="70" height="70" fill="black"/>
<path d="M375.001 193.883L378.937 192.345L384.081 195.315L384.718 199.493L387.004 200.813L389.709 200.088L390.699 198.374L390.336 197.021L391.689 196.659L392.679 194.944L391.954 192.24L389.668 190.92L385.896 192.172L380.752 189.202L379.951 185.31L377.665 183.99L374.96 184.714L373.97 186.429L374.332 187.781L372.98 188.144L371.99 189.859L372.715 192.563L375.001 193.883Z" fill="#131313"/>
<path d="M398.2 165.267L398.667 169.467L394.467 173.667L390.267 173.2L388.4 175.067L388.4 177.867L389.8 179.267L391.2 179.267L391.2 180.667L392.6 182.067L395.4 182.067L397.267 180.201L397.034 176.234L401.234 172.034L405.201 172.267L407.068 170.4L407.068 167.6L405.667 166.2L404.267 166.2L404.267 164.8L402.867 163.4L400.067 163.4L398.2 165.267Z" fill="#131313"/>
<rect x="359" y="154.265" width="8.64976" height="8.64976" transform="rotate(-29.5424 359 154.265)" fill="#131313"/>
<path d="M0 350H70V385L53.5 381.5L38.5 388L23 383L15.5 386.5L10.5 381.5L0 370.5V350Z" fill="black"/>
<path d="M12 345.738L3.5 340.333L-5.97389e-07 343.167L0 350L70 350L70 345.5L57 342.787L48 345.738L36 340L12 345.738Z" fill="black"/>
<path d="M210 350H140V385L156.5 381.5L171.5 388L187 383L194.5 386.5L199.5 381.5L210 370.5V350Z" fill="black"/>
<path d="M198 345.738L206.5 340.333L210 343.167L210 350L140 350L140 345.5L153 342.787L162 345.738L174 340L198 345.738Z" fill="black"/>
<path d="M70 350H140V385L123.5 381.5L108.5 388L93 383L82 388L70 385V350Z" fill="black"/>
<path d="M128 345.738L133 341.803L140 345.5L140 350L70 350L70 345.5L83 342.787L92 345.738L104 340L128 345.738Z" fill="black"/>
<path d="M280 70L350 0L344 1.04907e-06L338 4L337.5 10.5L317.5 19.5L307 39L295.5 42L288.5 59L280 65.5L280 70Z" fill="black"/>
<path d="M280 70L350 0V70H280Z" fill="black"/>
<path d="M420 70L350 0L356 1.04907e-06L362 4L362.5 10.5L382.5 19.5L393 39L404.5 42L411.5 59L420 65.5L420 70Z" fill="black"/>
<path d="M420 70L350 0V70H420Z" fill="black"/>
<path d="M3.86207 435.887L0 420H70V560H0V549.078L10.6207 536.17L16.4138 515.319L3.86207 503.404L6.75862 483.546L13.5172 469.645V457V442.837L3.86207 435.887Z" fill="#131313"/>
<rect x="70" y="420" width="70" height="140" fill="#131313"/>
<path d="M195.517 540.142L210 560H140V420H210V426.95L201.31 435.887V450.78L185.862 459.716V472L202.276 490.496V503.404L192.621 524.255L195.517 540.142Z" fill="#131313"/>
<path d="M214.795 547.092L211.918 560H280V420H210L211.918 436.879L240.685 439.858L257.945 457.73L260.822 493.475L240.685 513.333L233.973 538.156L214.795 547.092Z" fill="#131313"/>
<path d="M340.133 439.858L350 420H280V560H344.08L339.147 549.078L322.373 547.092L310.533 539.149L296.72 540.142L290.8 527.5L299.581 519.5L298.693 508.369L290.8 502.411V485.532L308.56 460.709L340.133 453.759V439.858Z" fill="#131313"/>
</g>
<defs>
<clipPath id="clip0_248_1397">
<rect width="420" height="560" fill="white"/>
</clipPath>
</defs>
</svg>
