<svg width="280" height="280" viewBox="0 0 280 280" fill="none" xmlns="http://www.w3.org/2000/svg">
<g clip-path="url(#clip0_248_1548)">
<path fill-rule="evenodd" clip-rule="evenodd" d="M13.4286 191V188.611L6 173.056L6.43628 171H0V165H7.70975L9.71429 155.556L6 159.444L13.4286 140L19 159.444L15.2857 155.556L13.2812 165H34V159.6L30 161.538L36 147L44 161.538L40 159.6V165H55.626L56.6667 159.486L53 161.429L60.3333 142L64 161.429L61.25 159.486L60.4695 165H70V171H59.6202L58.5 178.914L62.1667 188.629V191H70V197H62.1667V210H56.6667V197H36.6587L38 210H32L30.6587 197H19V210H13.4286V197H0V191H13.4286ZM19 191H30.0397L30 190.615L34 175.108V171H12.0077L11.5714 173.056L19 188.611V191ZM36.0397 191H56.6667V188.629L53 178.914L54.4936 171H40V175.108L36 190.615L36.0397 191Z" fill="black"/>
<path fill-rule="evenodd" clip-rule="evenodd" d="M30 84.622L34 82.6724L33.4456 95H15.4983L15.2857 89.4257L19 93.2821L13.4286 74L6 93.2821L9.71429 89.4257L9.92685 95H0V101H10.1556L10.9183 121H0V127H10.9285V140H16.5V127H32.6668L32 140H38L38.6668 127H56.6667V140H62.1667L61.9308 127H70V121H61.8219L61.4589 101H70V95H61.3501L61.25 89.4857L64 91.4286L60.3333 72L53 91.4286L56.6667 89.4857V95H39.4456L40 82.6724L44 84.622L36 70L30 84.622ZM56.6667 121V101H39.1757L39 104.907V120.504L38.9746 121H56.6667ZM32.9746 121L33 120.504V104.907L33.1757 101H15.7271L16.4897 121H32.9746Z" fill="black"/>
<path d="M0 0H5.5L8.5 2L11 2.5V0H32.5H65L70 7V70H64.5L63.5 69H61L59 70H48L44 66.5L41.5 69L35.5 70H17.75L10.5 69L10 64.5L8.875 70H0V24L3 18L0 17L0 0Z" fill="#262626"/>
<path d="M0 38H44V66.5L41.5 69L35.5 70H17.75L10.5 69L10 64.5L8.875 70H0V38Z" fill="black"/>
<path d="M26 0H65L70 1.5V34H26V0Z" fill="black"/>
<path d="M0 0H5.5L8.5 2L11 2.5V0H22V34H0V24V17V0Z" fill="black"/>
<path d="M48 38H70V70H64.5L63.5 69H61L59 70H48V38Z" fill="black"/>
<path fill-rule="evenodd" clip-rule="evenodd" d="M183 71H168.5L168.024 78.3995L140 79V117H154.939L154.939 109.963L161.341 117H165.543L164 141H181L181.686 117H210V77.5L182.798 78.0829L183 71Z" fill="black"/>
<path d="M153 102.348L155.474 91.0435L180.216 94.9565L176.093 88L193 98L177.33 108L180.216 101.478L153 102.348Z" fill="white"/>
<path fill-rule="evenodd" clip-rule="evenodd" d="M253 70H238.5L238.024 77.3995L210 78V116H224.939L224.939 108.963L231.341 116H235.543L234 140H251L251.686 116H280V76.5L252.798 77.0829L253 70Z" fill="black"/>
<path d="M265 92.6522L262.526 103.957L237.784 100.043L241.907 107L225 97L240.67 87L237.784 93.5217L265 92.6522Z" fill="white"/>
<path fill-rule="evenodd" clip-rule="evenodd" d="M183 140H168.5L168.024 147.399L140 148V186H154.939L154.939 178.963L161.341 186H165.543L164 210H181L181.686 186H210V146.5L182.798 147.083L183 140Z" fill="black"/>
<path fill-rule="evenodd" clip-rule="evenodd" d="M185.595 158.765L174.649 155L163.703 158.765L161 167.225L166.649 172.285V177H170.649V174.01H172.649V177H176.649V174.01H178.649V177H182.649V172.285L188.298 167.225L185.595 158.765ZM166.649 165C166.649 163.343 167.992 162 169.649 162C171.306 162 172.649 163.343 172.649 165V166C172.649 167.657 171.306 169 169.649 169C167.992 169 166.649 167.657 166.649 166V165ZM179.649 162C177.992 162 176.649 163.343 176.649 165V166C176.649 167.657 177.992 169 179.649 169C181.306 169 182.649 167.657 182.649 166V165C182.649 163.343 181.306 162 179.649 162Z" fill="white"/>
<path fill-rule="evenodd" clip-rule="evenodd" d="M253 140H238.5L238.024 147.399L210 148V186H224.939L224.939 178.963L231.341 186H235.543L234 210H251L251.686 186H280V146.5L252.798 147.083L253 140Z" fill="black"/>
<rect x="84" y="12" width="42" height="47" fill="#131313"/>
<path fill-rule="evenodd" clip-rule="evenodd" d="M70 0H140V12H138V13.8737L138.054 13.9275L138 13.9814V59H140V70H70V59H72L72 12H70V0ZM92.9814 59H126V25.9814L92.9814 59ZM84 12L84 44.8305L116.831 12H84Z" fill="#262626"/>
<circle cx="78" cy="6" r="2" fill="#131313"/>
<circle cx="78" cy="64" r="2" fill="#131313"/>
<circle cx="132" cy="6" r="2" fill="#131313"/>
<circle cx="132" cy="64" r="2" fill="#131313"/>
<path d="M90.3729 85.8636L80 88.6364L81.0805 98.803L81.6208 103.886L85 105.5L82.161 108.97L84.322 129.303L128.407 133L131 85.8636L128.191 85.4015L125.381 87.5V84.9394L119.763 84.0152L110.254 72L96.4237 75.697L90.3729 85.8636Z" fill="black"/>
<path d="M86 91.6364L89.1356 126L121.5 129.5L123 89.3636L114.847 87.8485L107.949 78L97.9153 81.0303L93.5254 89.3636L86 91.6364Z" fill="#262626"/>
<path d="M73.4146 130.222L70 140H140L135.732 132.889H130.61L127 128.5L81.9512 124L79.3902 130.222H73.4146Z" fill="black"/>
<path d="M72 135.5L70 140H140L135.732 137.333H130.61L127 135.688L79.5 133.5L72 135.5Z" fill="black"/>
<path fill-rule="evenodd" clip-rule="evenodd" d="M115.517 97.1896L104.891 93.9067L94.2642 97.1896L91.6396 104.566L96.6843 108.624V113.141H101.044V110.482H102.583V113.141H107.199V110.482H108.737V113.141H113.097V108.624L118.141 104.566L115.517 97.1896Z" fill="black"/>
<rect x="98" y="99" width="5" height="6" rx="2.5" fill="#262626"/>
<rect x="106" y="99" width="5" height="6" rx="2.5" fill="#262626"/>
<path fill-rule="evenodd" clip-rule="evenodd" d="M31.1799 221.468L29.0935 221.468L25.7554 222.516L23.6191 224.902L20.2891 223L9.44785 226.619L0 246.5L2.57669 267.129L12.5034 279.081L23.1902 280L25.7669 277.286L28.9398 280H40.3681L45.092 277.286L48.8366 280L59.2175 279.081L67.8528 265.5L70 243L59.6933 225.298L50.2454 224.379L49.5497 224.681L46.6187 222.016L42.2374 221.597L40.3597 221.468L40.5 216L37 210L28 215.5L32.5 219L31.1799 221.468Z" fill="black"/>
<rect x="16" y="235" width="12" height="15" rx="6" fill="white"/>
<rect x="42" y="235" width="12" height="15" rx="6" fill="white"/>
<path d="M19.7616 254H15L16.814 260.837L23.1628 266.209L30.8721 268L34.5 262.953L38.1279 268L43.343 266.86L52.186 260.837L54 254H49.2384L44.9302 259.698L41.5291 254H27.0174L23.1628 259.698L19.7616 254Z" fill="white"/>
<path fill-rule="evenodd" clip-rule="evenodd" d="M102.147 237.282L100.637 237.282L98.2194 238.039L96.3732 240.096L92.1118 238L82.8341 240.667L76.5 254.5V268.5L85.449 279.323L94.5944 280L96.7995 278L99.5148 280H109.295L113.337 278L116.542 280L125.426 279.323L133.5 268.5V253L125.833 239.694L117.748 239.016L115.663 239.796L113.327 237.678L110.155 237.376L108.795 237.282L108.897 233.333L106.362 229L99.8448 232.972L103.103 235.5L102.147 237.282Z" fill="black"/>
<path d="M87.5 253L98.5 257.889V258.5C98.5 261.538 96.0376 264 93 264V264C89.9624 264 87.5 261.538 87.5 258.5V253Z" fill="white"/>
<path d="M111.5 257.889L122.5 253V258.5C122.5 261.538 120.038 264 117 264V264C113.962 264 111.5 261.538 111.5 258.5V257.889Z" fill="white"/>
<path d="M102.5 264L105.5 260L108.5 264H102.5Z" fill="white"/>
<path fill-rule="evenodd" clip-rule="evenodd" d="M174 70L160 70L160 70H143.636L140 57.2L151.818 46V59.6L157.068 66.2736L154 54L167 40V57L175.011 68.5718L181.364 59.6V46L192 57.2L189.153 68.3342L197 57V40L210 54L206 70L188.727 70H174Z" fill="white"/>
<path d="M213.5 58.0968L218.833 70H232.5L223.167 58.0968L223.833 49.1694L236.5 46.8548L238.5 41.5645L235.5 36.6048L234.833 41.5645L232.167 42.8871L229.167 41.5645L227.167 35.2823L228.167 29L222.833 33.9597V39.9113L219.833 37.9274L218.833 33.2984L220.5 29L214.5 33.2984V39.9113L217.5 46.8548L213.5 58.0968Z" fill="black"/>
<path d="M254.5 63.9032L251.727 70H244.62L249.473 63.9032L249.127 59.3306L242.54 58.1452L241.5 55.4355L243.06 52.8952L243.407 55.4355L244.793 56.1129L246.353 55.4355L247.393 52.2177L246.873 49L249.647 51.5403V54.5887L251.207 53.5726L251.727 51.2016L250.86 49L253.98 51.2016V54.5887L252.42 58.1452L254.5 63.9032Z" fill="black"/>
<path d="M276.5 60.7097L272.447 70H262.06L269.153 60.7097L268.647 53.7419L259.02 51.9355L257.5 47.8065L259.78 43.9355L260.287 47.8065L262.313 48.8387L264.593 47.8065L266.113 42.9032L265.353 38L269.407 41.871V46.5161L271.687 44.9677L272.447 41.3548L271.18 38L275.74 41.3548V46.5161L273.46 51.9355L276.5 60.7097Z" fill="black"/>
<path fill-rule="evenodd" clip-rule="evenodd" d="M88.0751 140H76.6823L76.6823 150.172L70 150L73.1586 166L76.6823 165.857L76.6823 186.631L71 186.778L71 201L76.6823 200.634L76.6822 210H88.0751V199.9L123 197.651V210H134.247V196.926L140 196.556V185L134.247 185.148V163.526L139 163.333V151.778L134.247 151.655V140H123V151.366L88.0751 150.466V140ZM123 185.438V163.981L88.0751 165.396V186.338L123 185.438Z" fill="black"/>
<ellipse cx="83.3098" cy="158" rx="1.97183" ry="2" fill="#262626"/>
<ellipse cx="83.3098" cy="193" rx="1.97183" ry="2" fill="#262626"/>
<ellipse cx="128.662" cy="158" rx="1.97183" ry="2" fill="#262626"/>
<ellipse cx="128.662" cy="191" rx="1.97183" ry="2" fill="#262626"/>
</g>
<defs>
<clipPath id="clip0_248_1548">
<rect width="280" height="280" fill="white"/>
</clipPath>
</defs>
</svg>
