<svg width="61" height="27" viewBox="0 0 61 27" fill="none" xmlns="http://www.w3.org/2000/svg">
<path fill-rule="evenodd" clip-rule="evenodd" d="M25.5094 -8.43547e-06L33.0943 -7.77238e-06L37.3166 7.1669L40.5229 2.99999L44.4862 8.9518L48.7798 2.99999L55.1651 8.37951L61 5.28915L56.4862 18.2229L44.9266 22L38.9616 17.4522L40 27L33.7736 22.3448L25.5094 23.0431L22 27L22.501 17.7857L16.7431 22L4.70183 18.2229L-4.62392e-07 5.28915L6.07798 8.37951L12.7294 2.99999L17.2018 8.9518L20.4128 4.03011L23.5608 6.46505L25.5094 -8.43547e-06Z" fill="black"/>
<rect x="36" y="19" width="4" height="6" rx="2" transform="rotate(-180 36 19)" fill="white"/>
<rect x="29" y="19" width="4" height="6" rx="2" transform="rotate(-180 29 19)" fill="white"/>
</svg>
