<svg width="42" height="52" viewBox="0 0 42 52" fill="none" xmlns="http://www.w3.org/2000/svg">
<path fill-rule="evenodd" clip-rule="evenodd" d="M3.5 49.9806L0 18.6796L6.5 4.03884L29 0L42 13.6311L38 49.9806L28 44.932L22 52L12.5 44.932L3.5 49.9806ZM11.5 18C9.01472 18 7 20.0147 7 22.5V26.5C7 28.9853 9.01472 31 11.5 31C13.9853 31 16 28.9853 16 26.5V22.5C16 20.0147 13.9853 18 11.5 18ZM27 22.5C27 20.0147 29.0147 18 31.5 18C33.9853 18 36 20.0147 36 22.5V26.5C36 28.9853 33.9853 31 31.5 31C29.0147 31 27 28.9853 27 26.5V22.5ZM21.5 27C20.1193 27 19 28.1193 19 29.5V31.5C19 32.8807 20.1193 34 21.5 34C22.8807 34 24 32.8807 24 31.5V29.5C24 28.1193 22.8807 27 21.5 27Z" fill="white" fill-opacity="0.5"/>
</svg>
