<svg width="51" height="65" viewBox="0 0 51 65" fill="none" xmlns="http://www.w3.org/2000/svg">
<path fill-rule="evenodd" clip-rule="evenodd" d="M14 54V46L4.5 38L0 21L20.5 0L43.5 6.5L51 24L40.5 43.5L30 46L23 54L28 58L28.5 65L25 59L14 54ZM15.5 17.5C13.0147 17.5 11 19.5147 11 22V26C11 28.4853 13.0147 30.5 15.5 30.5C17.9853 30.5 20 28.4853 20 26V22C20 19.5147 17.9853 17.5 15.5 17.5ZM31 22C31 19.5147 33.0147 17.5 35.5 17.5C37.9853 17.5 40 19.5147 40 22V26C40 28.4853 37.9853 30.5 35.5 30.5C33.0147 30.5 31 28.4853 31 26V22ZM25.5 26.5C24.1193 26.5 23 27.6193 23 29V31C23 32.3807 24.1193 33.5 25.5 33.5C26.8807 33.5 28 32.3807 28 31V29C28 27.6193 26.8807 26.5 25.5 26.5Z" fill="white" fill-opacity="0.5"/>
</svg>
