<svg width="28" height="22" viewBox="0 0 28 22" fill="none" xmlns="http://www.w3.org/2000/svg">
<path fill-rule="evenodd" clip-rule="evenodd" d="M24.5946 3.7651L13.649 0L2.70335 3.7651L0 12.2252L5.649 17.2849V22H9.649V19.0097H11.649V22H15.649V19.0097H17.649V22H21.649V17.2849L27.298 12.2252L24.5946 3.7651ZM5.64899 10C5.64899 8.34315 6.99213 7 8.64899 7C10.3058 7 11.649 8.34315 11.649 10V11C11.649 12.6569 10.3058 14 8.64899 14C6.99213 14 5.64899 12.6569 5.64899 11V10ZM18.649 7C16.9921 7 15.649 8.34315 15.649 10V11C15.649 12.6569 16.9921 14 18.649 14C20.3058 14 21.649 12.6569 21.649 11V10C21.649 8.34315 20.3058 7 18.649 7Z" fill="white"/>
</svg>
