<svg width="1440" height="807" viewBox="0 0 1440 807" fill="none" xmlns="http://www.w3.org/2000/svg">
<path fill-rule="evenodd" clip-rule="evenodd" d="M582.242 335.763H667.82L650.799 307.666L571.84 303.451L564.275 212.603H577.041L604.464 118.477L625.267 212.603H650.799V254.281L678.222 261.305L685.314 195.745L650.799 186.379L636.142 138.613L656.946 134.867L718.411 0L775.621 134.867L790.751 138.613L784.131 195.745H765.219V212.603H800.68L806.354 163.433H818.647L838.505 88.9749L861.199 163.433H877.275L861.199 250.066L770.42 268.329L775.621 335.763L861.199 331.548L869.237 369.48L835.195 372.758V413.245L879.785 415.186L1022.83 469.128L1027.23 426.405L974.087 416.904L961.886 398.495L931.903 403.572L896.637 393.699L929.057 396.082L956.542 381.563L951.78 326.373L972.383 382.728L992.137 398.349L1030.23 386.25L1045.38 310.847L1006.74 199.333L1025.62 145.526L1055.35 118.751L1016.32 107.201L1003.22 53.1546L1020.71 94.0118L1071.4 105.823L1093.78 86.3529L1057.81 33.9987L1112.35 85.3048L1082.86 120.772L1055.18 153.762L1042.45 193.091L1079.22 255.15L1127.82 229.88L1139.84 201.975L1121.51 165.604L1143.52 183.605L1160.83 161.528L1166.5 141.887L1168.85 169.084L1151.38 201.097L1150.93 239.67L1097.56 283.179L1096.28 300.319L1124.26 310.097L1147.08 291.197L1183.19 289.473L1146.44 299.663L1129.2 335.072L1094.02 330.556L1087.71 415.025L1104.61 499.969L1106 500.491L1144.99 494.83L1144.61 492.555L1131.36 494.712L1130.39 488.839L1143.64 486.682L1142.12 477.493L1132.27 463.46L1132.37 461.377L1126.02 462.411L1125.05 456.538L1132.66 455.3L1133.1 445.734L1130.07 450.137L1134.25 429.911L1142.9 448.049L1138.6 444.839L1138.15 454.405L1158.6 451.078L1157.72 445.792L1154.09 448.332L1157.66 433.138L1167.91 446.084L1163.65 444.829L1164.52 450.115L1179.94 447.605L1180.07 442.041L1176.77 444.531L1180.86 424.336L1187.62 442.765L1184.6 441.305L1184.72 446.828L1193.64 445.376L1194.12 445.297L1201.25 444.138L1201.7 434.572L1198.66 438.975L1202.85 418.749L1211.49 436.887L1207.2 433.677L1206.75 443.243L1227.19 439.916L1226.32 434.63L1222.68 437.17L1226.25 421.976L1236.5 434.922L1232.24 433.667L1233.11 438.953L1248.53 436.443L1248.67 430.879L1245.36 433.369L1249.45 413.174L1256.22 431.603L1253.19 430.143L1253.31 435.666L1262.72 434.135L1263.69 440.008L1253.45 441.675L1253.62 449.601L1258.81 458.521L1260.33 467.694L1268.06 466.436L1269.03 472.309L1261.3 473.567L1262.01 477.839L1287.5 474.138L1348.05 482.024L1345.4 466.379L1335.5 423.949L1297.62 397.936L1292.48 367.607L1263.77 339.789L1262.65 307.375L1272.96 338.257L1289.33 348.997L1311.06 322.698L1300.76 352.054L1310.96 382.247L1340.53 400.19L1352.44 384.983L1340.37 345.455L1369.17 382.196L1353.53 423.151L1368.22 459.492L1384.78 448.799L1397.99 424.118L1398.39 443.679L1416.63 440.642L1402.27 449.412L1384.19 470.937L1398.59 488.607L1440 494V807H0V494.186L126.156 451.129L126.397 416.983L144.46 384.438L122.567 355.397L118.678 322.537L129.193 352.903L159.082 376.417L219.377 340.102L163.014 302.44L101.771 291.767L86.1656 247.635L61.2988 237.32L91.9192 237.775L99.9136 222.484L95.3903 198.888L113.03 216.362L103.2 250.246L113.447 278.345L170.64 288.916L182.478 252.5L173.27 228.301L196.268 261.807L192.26 296.162L238.414 320.654L244.829 277.404L292.58 266.673L260.293 291.111L262.413 343.131L222.797 368.997L240.472 391.636L254.694 389.98L265.23 366.927L286.043 357.611L273.194 365.999L272.111 382.62L278.562 368.988L282.291 386.766L296.223 385.143L296.559 385.459L300.555 377.565L307.459 392.533L303.613 390.322L303.491 391.958L307.803 396.001L318.798 396.809L320.243 391.43L316.443 393.083L325.191 374.402L327.413 393.889L324.814 391.766L323.628 397.163L333.133 397.862L332.69 403.797L322.338 403.036L321.137 408.503L323.469 410.689L320.913 409.523L320.636 410.783L323.576 420.661L322.883 429.931L330.695 430.505L330.252 436.44L322.44 435.867L322.071 440.815L439.166 466.578L476.705 459.769L475.894 455.502L462.698 457.971L461.586 452.122L474.782 449.654L473.042 440.502L462.859 426.706L462.906 424.622L456.581 425.805L455.469 419.957L463.046 418.539L463.265 408.965L460.336 413.439L464.032 393.12L473.111 411.049L468.74 407.941L468.521 417.515L488.881 413.706L487.88 408.442L484.308 411.067L487.51 395.793L498.066 408.493L493.776 407.339L494.777 412.603L510.132 409.73L510.133 404.164L506.89 406.732L510.495 386.447L517.699 404.71L514.637 403.322L514.892 408.84L524.257 407.088L525.369 412.936L515.169 414.844L515.535 422.765L520.939 431.559L522.676 440.694L530.373 439.254L531.485 445.102L523.788 446.542L524.649 451.072L571.248 442.619L570.332 437.802L557.136 440.271L556.024 434.423L569.22 431.954L567.48 422.803L557.297 409.006L557.345 406.922L551.02 408.105L549.908 402.257L557.485 400.84L557.704 391.266L554.775 395.739L558.471 375.421L567.549 393.349L563.179 390.241L562.959 399.815L583.32 396.006L582.319 390.743L578.747 393.368L581.949 378.094L592.505 390.794L588.215 389.64L589.216 394.903L604.571 392.031L604.571 386.465L601.328 389.033L604.934 368.747L612.138 387.01L609.075 385.622L609.33 391.14L618.214 389.478L615.811 361.987L590.279 359.178L582.242 335.763ZM618.735 395.437L609.608 397.145L609.974 405.065L615.378 413.86L617.114 422.994L621.079 422.252L618.735 395.437ZM621.6 428.211L618.226 428.842L619.192 433.922L622.054 433.403L621.6 428.211ZM317.225 402.661L316.759 404.398L314.709 402.476L317.225 402.661ZM315.986 407.275L303.693 401.667L302.771 401.599L302.468 405.662L297.333 420.709L297.548 428.07L317.398 429.529L318.091 420.258L315.151 410.38L315.986 407.275ZM281.237 386.889L278.474 387.21L279.265 384.511L281.237 386.889ZM271.761 387.992L272.597 387.895L273.709 384.103L271.909 385.715L271.761 387.992ZM268.712 401.142L269.146 399.662L233.347 404.528L211.558 390.983L180.644 422.153L189.341 442.151L273.578 435.736L273.835 432.296L260.443 431.313L260.886 425.377L274.278 426.361L274.972 417.074L268.712 401.142ZM613.782 434.904L612.822 429.853L593.87 433.399L595.326 438.252L613.782 434.904ZM589.421 439.323L587.974 434.502L575.807 436.778L576.729 441.625L589.421 439.323ZM1150.5 494.03L1163.02 492.211L1162.33 489.672L1150.11 491.661L1150.5 494.03ZM1168.97 491.348L1187.78 488.617L1187.28 485.612L1168.25 488.709L1168.97 491.348ZM1193.22 487.827L1213.78 484.842L1213.21 481.393L1200.44 483.471L1199.96 483.55L1192.71 484.729L1193.22 487.827ZM1219.29 484.042L1231.93 482.206L1230.92 478.511L1218.7 480.499L1219.29 484.042ZM1237.88 481.342L1256.57 478.629L1255.87 474.45L1236.84 477.547L1237.88 481.342ZM279.197 435.308L291.76 434.351L291.739 433.611L279.391 432.704L279.197 435.308ZM297.763 435.467L316.645 439.621L316.955 435.464L297.722 434.051L297.763 435.467ZM482.186 458.775L494.82 456.483L493.535 452.201L481.369 454.478L482.186 458.775ZM500.725 455.412L519.239 452.053L518.383 447.553L499.431 451.098L500.725 455.412ZM586.254 428.767L574.695 430.93L572.955 421.778L562.772 407.982L562.82 405.898L584.432 401.855L585.193 405.858L584.136 421.709L586.254 428.767ZM611.71 424.005L592.15 427.664L590.032 420.606L591.089 404.755L590.328 400.752L604.57 398.087L604.569 406.076L609.973 414.871L611.71 424.005ZM491.815 446.467L480.257 448.629L478.516 439.478L468.333 425.681L468.381 423.597L489.993 419.554L490.754 423.558L489.698 439.409L491.815 446.467ZM517.271 441.705L497.711 445.364L495.594 438.306L496.65 422.455L495.889 418.451L510.131 415.787L510.13 423.776L515.534 432.57L517.271 441.705ZM279.835 426.769L291.564 427.631L291.35 420.27L296.484 405.223L296.788 401.16L274.855 399.549L274.268 401.55L280.528 417.482L279.835 426.769ZM1212.24 475.521L1199.47 477.598L1198.98 477.677L1191.74 478.856L1190.22 469.683L1185.03 460.763L1184.85 452.837L1194.61 451.249L1195.1 451.17L1200.96 450.215L1200.87 452.298L1210.72 466.331L1212.24 475.521ZM1160.75 483.899L1149.14 485.788L1147.62 476.598L1137.77 462.565L1137.87 460.483L1159.57 456.951L1160.24 460.972L1158.8 476.793L1160.75 483.899ZM1186.31 479.739L1166.67 482.935L1164.72 475.83L1166.16 460.008L1165.49 455.988L1179.79 453.66L1179.6 461.646L1184.79 470.566L1186.31 479.739ZM1217.73 474.626L1229.34 472.737L1227.39 465.631L1228.83 449.81L1228.16 445.789L1206.46 449.321L1206.36 451.403L1216.21 465.436L1217.73 474.626ZM1235.26 471.773L1254.9 468.577L1253.39 459.404L1248.19 450.484L1248.39 442.498L1234.08 444.826L1234.75 448.846L1233.31 464.668L1235.26 471.773Z" fill="url(#paint0_linear_250_1661)"/>
<defs>
<linearGradient id="paint0_linear_250_1661" x1="720" y1="0" x2="720" y2="807" gradientUnits="userSpaceOnUse">
<stop stop-color="#484848"/>
<stop offset="1" stop-color="#7F7F7F"/>
</linearGradient>
</defs>
</svg>
