<svg width="225" height="340" viewBox="0 0 225 340" fill="none" xmlns="http://www.w3.org/2000/svg">
<path d="M74.4335 242.809H12.9154L18.6934 259.741L37.0468 261.773L43.8444 340H194.751V269.562L219.222 267.191L213.444 239.761L151.926 242.809L148.187 194.044L213.444 180.837L225 118.187H213.444L197.13 64.3426L182.855 118.187H174.018L169.94 153.745H144.449V141.554H158.044L162.802 100.239L151.926 97.5299L110.801 0L66.6163 97.5299L51.6616 100.239L62.1979 134.781L87.0091 141.554L81.9109 188.964L62.1979 183.884V153.745H43.8444L28.8897 85.6773L9.17674 153.745H0L5.43807 219.442L62.1979 222.49L74.4335 242.809Z" fill="black"/>
</svg>
