<svg width="1440" height="862" viewBox="0 0 1440 862" fill="none" xmlns="http://www.w3.org/2000/svg">
<g clip-path="url(#clip0_253_1747)">
<path fill-rule="evenodd" clip-rule="evenodd" d="M991.672 49.6562L1047.6 -83.8834L1110.28 -94L1056.03 65.4381L1110.28 309.856L1178 511.379L1168.35 628.734L1260.86 658.074L1266.43 651.665L1264 650.768L1254.3 629.797L1279.08 637.089L1284 631.423H1284.62L1278.22 593.27L1313.1 638.826L1311.64 620.186L1325.51 638.546L1346.53 610.402L1344.48 635.366L1361.73 611.789L1368.7 626.996L1376.09 618.375L1374.01 632.328L1367.12 639.156L1440 626.182V862H0V626.233L45.5 638.733L71 647.252L84 677.426L95 670.006L130.789 680.873L128.495 678.618L117 640.609L135.811 671.427L150.441 681.7L135.811 651.909L128.495 580L143.126 648.827L164.027 674.509L175.523 651.909L171.342 590.273L185.973 648.827L178.658 674.509L195.378 659.1L207.919 628.282V663.209L195.378 681.7L198.195 680.925L226.367 667.991L233 659.1V664.946L284.702 641.21C294.298 585.11 307.563 511.834 307.563 511.834L275.027 248.466L246 157.844L259.078 104.038L246 -59H377.1V104.038L349.349 157.844L369.126 256.961L414.102 223.383L420.801 104.038L446 233.497L369.126 327.355L435.474 501.315L427.268 614.669L461.135 595.313V612.86L583.185 669.377H633.502C633.974 659.299 634.756 649.246 635.922 646.621L652.662 635.188L653.453 602.783L679.347 595.535L724.434 570.917L746.505 585.398L751.763 620.23L773.177 630.358L776.694 640.982L852.385 597.519L893.725 593.382L896 578L924.5 605.206L958 584.431L1017.74 580.968L1051.36 591.629L1069.17 540.92L1033.12 348.299L973.478 309.856L960 212.736L991.672 274.65L1033.12 298.93L991.672 49.6562Z" fill="url(#paint0_linear_253_1747)"/>
</g>
<defs>
<linearGradient id="paint0_linear_253_1747" x1="720" y1="-94" x2="720" y2="862" gradientUnits="userSpaceOnUse">
<stop stop-color="#1F1F1F"/>
<stop offset="1" stop-color="#343434"/>
</linearGradient>
<clipPath id="clip0_253_1747">
<rect width="1440" height="862" fill="white"/>
</clipPath>
</defs>
</svg>
