<svg width="1440" height="278" viewBox="0 0 1440 278" fill="none" xmlns="http://www.w3.org/2000/svg">
<path fill-rule="evenodd" clip-rule="evenodd" d="M1013.37 8.59863L1002.64 8.80078L1001.25 18.8218L1000.55 23.8323L1003.45 26.1836L999.86 28.8425L997.145 48.4287L958 50.6973L924.5 71.4729L896 44.2668L893.725 59.6484L852.385 63.7864L794.756 96.8774L789.686 91.7097L797.512 80.2397L804.131 75.248L795.328 77.5815L794.177 67.9255L788.895 80.7344L781.289 86.7771L772.303 69.4736L777.984 48.5059L762.058 31.6472L769.909 50.6465L764.805 58.7104L749.415 51.1838L742.935 36.7166L746.561 21.728L737.177 35.7253L728.62 31.1597L722.049 16.3567L724.181 32.3364L739.631 44.7859L743.63 59.5515L763.494 70.6902L770.422 91.2236L773.701 103.329L773.219 109.244L763.8 114.652L711.88 125.148L682.5 144.682L685.919 130.396L678 122.423L659.959 135.644H619.784L629.245 105.074L626.629 103.964L623.398 105.313L624.012 102.854L618.779 100.633L612.43 86.8372L598.116 87.1069L589.804 95.4358L579.069 95.6379L577.68 105.659L576.985 110.669L579.879 113.021L576.291 115.68L574.106 131.44L528.139 110.154L520.246 102.432L519.786 93.5867L532.061 89.7405L533.381 84.2996L529.781 79.8047L529.743 84.7554L527.264 86.385L524.121 85.4597L521.348 79.5425L521.55 73.2524L516.883 78.7832L517.63 84.6245L514.405 83.0503L512.831 78.6313L513.945 74.2053L508.532 79.1699L509.363 85.6604L513.212 92.1023L510.972 102.205L461.135 79.1267V61.5798L422.133 83.8701L391.5 68.5051L383.131 88.6135L308.279 97.7168L296.569 62.0073L293.782 62.5823L291.918 65.5205L290.995 63.1575L285.421 64.3076L272.221 56.6094L260.652 64.9519L258.672 76.4915L249.995 82.7483L254.667 91.7454L257.003 96.2439L260.736 96.5281L259.338 100.742L267.045 115.583L187.399 152.148L192.297 144.195L189.741 132.664L193.59 126.222L194.421 119.731L189.009 114.767L190.122 119.193L188.548 123.612L185.323 125.186L186.071 119.345L181.403 113.814L181.605 120.104L178.832 126.021L175.69 126.947L173.21 125.317L173.172 120.366L169.573 124.861L170.892 130.302L183.168 134.148L182.707 142.993L173.595 151.908L166.671 151.273L167.202 150.908L148.964 145.357L143.226 135.733L154.682 124.338L152.944 117.492L146.266 114.546L149.146 120.104L147.336 123.359L143.276 124.14L136.681 119.126L133.194 111.976L131.24 120.858L135.525 126.957L130.989 127.061L126.62 123.029L125.251 117.437L122.131 126.116L126.892 132.893L134.999 137.872L137.959 148.64L134.768 148.348L95 136.273L84 143.693L71 113.519L45.5 105L0 92.5002V277.745H1440V92.4487L1394.51 100.548L1386.57 91.2468L1394.11 77.1199L1403.2 79.5654L1423.07 70.5737L1435.49 72.2671L1423.21 66.2029L1414.92 69.7627L1413.09 61.9319L1416.71 57.655L1410.39 63.0911L1409.14 72.2463L1404.33 74.3162L1395.72 68.2632L1406.87 55.0764L1400.6 37.1318L1409.33 25.2119L1393.71 33.9663L1396.06 49.7432L1377.25 46.0295L1375.01 33.6118L1363.37 24.3218L1369.18 31.8074L1368.89 45.7659L1347.69 48.0715L1341.11 39.333L1340.96 26.4692L1332.91 22.2163L1337 29.9827L1335.82 36.1606L1325.03 39.2126L1334.85 40.2073L1345.02 53.9832L1367.65 51.2886L1391.44 58.5312L1374.14 77.5356L1361.15 72.4578L1354.23 62.9561L1359.09 74.0239L1369.86 81.8699L1366.98 95.1296L1369.89 104.93L1350.43 108.395L1317 116.487L1305.5 108.395V97.6897H1284L1260.86 124.341L1182.21 99.3962L1179.25 96.4956L1178.79 87.6506L1191.06 83.8044L1192.38 78.3635L1188.78 73.8687L1188.74 78.8193L1186.26 80.449L1183.12 79.5237L1180.35 73.6064L1180.55 67.3164L1175.88 72.8472L1176.63 78.6885L1173.4 77.1143L1171.83 72.6953L1172.94 68.2693L1167.53 73.2339L1168.36 79.7244L1172.21 86.1663L1170.13 95.5642L1041.51 54.7717L1052.82 18.2371L1050.2 17.127L1046.97 18.4758L1047.58 16.0166L1042.35 13.7959L1036 0L1021.69 0.269775L1013.37 8.59863Z" fill="url(#paint0_linear_250_1708)"/>
<defs>
<linearGradient id="paint0_linear_250_1708" x1="720" y1="0" x2="720" y2="277.745" gradientUnits="userSpaceOnUse">
<stop stop-color="#1F1F1F"/>
<stop offset="1" stop-color="#343434"/>
</linearGradient>
</defs>
</svg>
