<svg width="422" height="422" viewBox="0 0 422 422" fill="none" xmlns="http://www.w3.org/2000/svg">
<path d="M75.9895 44.925L158.619 8.8377L212.476 0L307.647 24.3037L390.276 96.4782L422 222.415L390.276 327.731L312.073 399.169L185.916 422L75.9895 376.339L13.2797 282.806L0 205.476L13.2797 140.667L75.9895 44.925Z" fill="white" fill-opacity="0.1"/>
<path d="M103.783 80.3438L168.79 51.9529L211.161 45L286.035 64.1204L351.042 120.902L376 219.981L351.042 302.836L289.517 359.038L190.266 377L103.783 341.077L54.4476 267.492L44 206.654L54.4476 155.667L103.783 80.3438Z" fill="white" fill-opacity="0.1"/>
<path d="M119.14 99.2339L174.748 74.9476L210.993 69L275.042 85.356L330.65 133.928L352 218.682L330.65 289.558L278.021 337.635L193.119 353L119.14 322.271L76.9371 259.325L68 207.283L76.9371 163.667L119.14 99.2339Z" fill="white"/>
<path d="M121.6 98.9145L176.621 74.8848L212.483 69L275.855 85.1832L330.876 133.243L352 217.101L330.876 287.229L278.802 334.798L194.797 350L121.6 319.595L79.8427 257.314L71 205.822L79.8427 162.667L121.6 98.9145Z" fill="#F5F5F5"/>
<path d="M109.179 143.821L110.571 133.607L114.75 127.107L125.893 122L134.25 133.607L127.75 147.536L114.75 151.25L109.179 143.821Z" fill="#DADADA"/>
<path d="M253.242 294.577L260.675 279.721L270.466 271.986L290.242 270.011L297.074 292.083L279.866 309.94L257.957 308.82L253.242 294.577Z" fill="#DADADA"/>
<path d="M105.929 225.071L114.286 232.036L117.536 242.25L113.357 249.678H100.357L92 238.536L94.3214 226L105.929 225.071Z" fill="#DADADA"/>
<path d="M291.623 235.739L287.059 245.614L278.034 251.397L269.777 249.283L266.413 236.726L275.013 225.77L287.722 224.768L291.623 235.739Z" fill="#DADADA"/>
<path d="M149.107 246.893L125.893 253.393L118 276.607L132.393 304.464L165.821 316.071L189.036 307.714L193.214 281.714L175.571 255.714L149.107 246.893Z" fill="#DADADA"/>
<path d="M312.194 142.415L300.493 139.497L292.601 149.251L293.699 167.587L308.191 180.964L320.58 182.589L326.928 170.797L323.75 152.803L312.194 142.415Z" fill="#DADADA"/>
<path fill-rule="evenodd" clip-rule="evenodd" d="M99.85 132.052L80 163.001L71 205.347L80 257.501L121.5 319.5L194.5 350L278.5 335L306.574 309.333L219.643 325.065L143.58 293.47L100.189 228.751L91 175.243L99.85 132.052Z" fill="#A1A1A1" fill-opacity="0.3"/>
</svg>
