<svg width="1440" height="862" viewBox="0 0 1440 862" fill="none" xmlns="http://www.w3.org/2000/svg">
<path d="M668.553 212.804L674.291 0.000236511L639.865 0L644.928 178.208V350.682V538.42L636.321 862H674.291V451.928L668.553 212.804Z" fill="#858585"/>
<path d="M1308.23 212.804L1313.97 0L1279.54 0.000234109L1284.61 178.207V350.682V538.42L1276 862H1313.97V451.928L1308.23 212.804Z" fill="#858585"/>
<path d="M237.232 212.804L242.97 0H208.544L213.607 178.208V350.682V538.42L205 862H242.97V451.928L237.232 212.804Z" fill="#858585"/>
<path d="M770.233 212.804L775.97 0L741.544 -0.000236511L746.607 178.207V350.682V538.42L738.001 862H775.97V451.928L770.233 212.804Z" fill="#858585"/>
<path d="M83.2653 341.808V0H55.9198L47.0095 43.9998V358.166V623.259L-0.000160217 523.188L47.0095 653.569L39.1224 859.966H83.2653V437.55L93.7119 376.448L83.2653 341.808Z" fill="#858585"/>
<path d="M893.478 341.808L893 0.0271108L866.133 0.628741L857.222 43.9991V358.165V623.258L810.213 523.187L857.222 653.568L849.335 859.965H893.478V437.549L903.925 376.448L893.478 341.808Z" fill="#858585"/>
<path d="M613.266 341.808V0H585.92L577.01 43.9998V358.166V623.259L530 523.188L577.01 653.569L569.123 859.966H613.266V437.55L623.712 376.448L613.266 341.808Z" fill="#858585"/>
<path d="M406.21 364.695L411.657 0.000614687L382.732 8.7641e-05V174.434H373.152L363.949 121.778L367.517 183.873L378.787 201.756L382.732 418.842L373.152 568.367L348.922 859.966H406.21V615.559L424.054 587.244L420.861 530.116L417.668 568.367L406.21 575.818L411.657 393.507L420.861 333.399L406.21 364.695Z" fill="#858585"/>
<path d="M1147.19 410.059L1152.62 0H1123.75V237.284H1114.19L1105 189.466L1108.56 245.855L1119.81 262.095L1123.75 459.23L1114.19 595.014L1090 859.815H1147.19V637.869L1165 612.156L1161.81 560.278L1158.62 595.014L1147.19 601.78L1152.62 436.223L1161.81 381.639L1147.19 410.059Z" fill="#858585"/>
</svg>
