<svg width="278" height="476" viewBox="0 0 278 476" fill="none" xmlns="http://www.w3.org/2000/svg">
<path d="M132.669 396.787L130.472 476H218.348L192.141 380.876V295.484L227.561 297.424L242.117 260.55L278 247.589L242.117 251.991L220.768 272.68L192.141 264.917V247.589L242.117 199.902L239.691 161.087L254.733 127.609L250.366 100.438L246.176 120.605L230.553 144.081L207.26 127.609L228.253 162.822L218.348 191.766L171.763 220.765L130.472 161.087L140.236 120.605L165.378 85.3913L192.141 47.5529L133.929 0L173.703 49.9788L152.84 71.208L101.408 63.0788L80.9199 23.2935L98.0114 76.6641L137.798 85.3913L110.142 114.509L95.3218 170.002L142.165 279.263L132.669 356.194L95.5854 371.173L74.7216 356.927L49.9761 301.791L58.8371 356.927L32.5087 373.556H0L35.9052 380.876L65.4278 373.556L78.9671 391.163L132.669 396.787Z" fill="black"/>
</svg>
