<svg width="222" height="247" viewBox="0 0 222 247" fill="none" xmlns="http://www.w3.org/2000/svg">
<path d="M89.5418 215.197L99.0788 247H34.969L40.2673 204.597L60.4009 176.504L43.4463 147.352V116.609L49.8043 145.762L74.7064 170.674L134.048 143.642L86.3628 102.828L31.2601 86.397L21.7231 43.9936L-1.52588e-05 31.8026L28.0811 35.5129L37.0883 22.2618L35.4988 0L49.8043 18.0215L37.0883 48.2339L43.4463 75.2661L94.8401 91.1674L109.675 58.8348L103.847 35.5129L121.332 68.9056L113.914 100.178L153.652 127.74L164.248 88.5172L209.284 83.7468L176.964 102.828L173.255 151.062L134.048 170.674L147.823 193.466H161.069L173.255 173.324L193.389 166.964L180.673 173.324L176.964 193.466H199.747L222 219.968L194.979 203.536L139.876 204.597L121.332 189.755L89.5418 215.197Z" fill="black"/>
</svg>
